<?xml version="1.0" encoding="UTF-8" standalone="no"?>
<!-- Created with Inkscape (http://www.inkscape.org/) -->

<svg
   width="210mm"
   height="297mm"
   viewBox="0 0 210 297"
   version="1.1"
   id="svg1"
   inkscape:version="1.3.2 (091e20e, 2023-11-25, custom)"
   sodipodi:docname="logo.svg"
   xmlns:inkscape="http://www.inkscape.org/namespaces/inkscape"
   xmlns:sodipodi="http://sodipodi.sourceforge.net/DTD/sodipodi-0.dtd"
   xmlns:xlink="http://www.w3.org/1999/xlink"
   xmlns="http://www.w3.org/2000/svg"
   xmlns:svg="http://www.w3.org/2000/svg">
  <sodipodi:namedview
     id="namedview1"
     pagecolor="#ffffff"
     bordercolor="#000000"
     borderopacity="0.25"
     inkscape:showpageshadow="2"
     inkscape:pageopacity="0.0"
     inkscape:pagecheckerboard="0"
     inkscape:deskcolor="#d1d1d1"
     inkscape:document-units="mm"
     inkscape:zoom="1.9830139"
     inkscape:cx="508.82144"
     inkscape:cy="286.68482"
     inkscape:window-width="1920"
     inkscape:window-height="1001"
     inkscape:window-x="-9"
     inkscape:window-y="-9"
     inkscape:window-maximized="1"
     inkscape:current-layer="layer1" />
  <defs
     id="defs1">
    <linearGradient
       id="linearGradient13"
       inkscape:collect="always">
      <stop
         style="stop-color:#241c1c;stop-opacity:0;"
         offset="0"
         id="stop15" />
      <stop
         style="stop-color:#241c1c;stop-opacity:1;"
         offset="1"
         id="stop14" />
    </linearGradient>
    <linearGradient
       id="swatch8"
       inkscape:swatch="solid">
      <stop
         style="stop-color:#241c1c;stop-opacity:1;"
         offset="0"
         id="stop9" />
    </linearGradient>
    <rect
       x="159.85768"
       y="260.46212"
       width="78.163849"
       height="123.29717"
       id="rect1" />
    <rect
       x="159.85768"
       y="260.46213"
       width="78.163849"
       height="123.29717"
       id="rect1-4" />
    <radialGradient
       inkscape:collect="always"
       xlink:href="#linearGradient13"
       id="radialGradient15"
       cx="52.078781"
       cy="82.835449"
       fx="52.078781"
       fy="82.835449"
       r="23.530002"
       gradientTransform="matrix(1,0,0,0.97594252,69.582036,-25.200466)"
       gradientUnits="userSpaceOnUse" />
  </defs>
  <g
     inkscape:label="Calque 1"
     inkscape:groupmode="layer"
     id="layer1">
    <ellipse
       style="mix-blend-mode:normal;fill:#ff0000;fill-opacity:1;stroke:url(#radialGradient15);stroke-width:0.264583"
       id="path1"
       cx="121.66083"
       cy="55.64217"
       rx="23.397711"
       ry="22.831638"
       inkscape:export-filename="logo2.png"
       inkscape:export-xdpi="810.75842"
       inkscape:export-ydpi="810.75842" />
    <text
       xml:space="preserve"
       style="font-size:18.7879px;fill:#f2f2f2;stroke:#241c1c;stroke-width:2.78487"
       x="104.6596"
       y="57.220726"
       id="text2"
       transform="scale(0.98467182,1.0155668)"><tspan
         sodipodi:role="line"
         id="tspan1"
         style="fill:#f2f2f2;stroke-width:2.78487"
         x="104.6596"
         y="57.220726">URL</tspan></text>
    <text
       xml:space="preserve"
       style="font-size:18.7879px;fill:#00ff00;stroke:#241c1c;stroke-width:2.78487"
       x="106.70388"
       y="57.342316"
       id="text2-5"
       transform="scale(0.98467182,1.0155668)"><tspan
         sodipodi:role="line"
         id="tspan1-5"
         style="stroke-width:2.78487"
         x="106.70388"
         y="57.342316">URL</tspan></text>
    <path
       style="fill:#f2f2f2;stroke:#241c1c;stroke-width:0;stroke-dasharray:none"
       d="m 107.84257,59.501933 c -1.64948,-0.44423 -2.92859,-1.45822 -3.65517,-2.89756 -0.72255,-1.43137 -0.77828,-2.01219 -0.78083,-8.137797 l -0.002,-5.570487 h 2.20151 2.20151 v 5.53443 c 0,6.240264 0.0292,6.465804 0.88364,6.822814 0.59271,0.24764 1.83479,0.23472 2.33569,-0.0243 0.82057,-0.42433 0.84428,-0.60408 0.89198,-6.762447 l 0.0431,-5.570488 h 2.20544 2.20544 l -0.0597,5.703912 c -0.0647,6.184143 -0.0929,6.446603 -0.86332,8.038843 -0.68637,1.41855 -2.21557,2.56946 -3.87962,2.91988 -0.95916,0.20199 -2.87488,0.1728 -3.72739,-0.0568 z"
       id="path6" />
    <path
       style="fill:#f2f2f2;stroke:#241c1c;stroke-width:0;stroke-dasharray:none"
       d="m 117.14701,51.168427 v -8.272338 l 3.03542,0.0011 c 3.33432,0.0011 4.41797,0.119473 5.46615,0.597072 0.93757,0.427197 1.95706,1.40937 2.39763,2.309863 0.28544,0.583417 0.37358,0.984287 0.41725,1.897676 0.085,1.777712 -0.3301,2.970581 -1.4632,4.20483 l -0.49388,0.537972 1.60567,1.930381 c 0.88311,1.06172 1.65923,1.95041 1.7247,1.97487 0.0688,0.0257 0.11905,-2.804476 0.11905,-6.704601 v -6.749071 h 2.20151 2.20151 v 6.137542 6.13754 h 3.33562 3.33562 v 2.13595 2.13594 l -7.23501,-0.0345 -7.23501,-0.0345 -2.17789,-2.66849 c -1.61006,-1.97276 -2.26317,-2.67951 -2.505,-2.71072 l -0.32712,-0.0422 v 2.74407 2.74407 h -2.20151 -2.20151 z m 6.19049,-1.653458 c 0.69987,-0.292425 0.97785,-1.368253 0.50456,-1.952741 -0.20292,-0.250595 -0.41215,-0.310994 -1.26753,-0.36589 l -1.0245,-0.06575 v 1.285084 1.285081 h 0.67141 c 0.36928,0 0.8715,-0.0836 1.11606,-0.185784 z"
       id="path7" />
    <text
       xml:space="preserve"
       style="font-size:9.61961px;fill:#f2f2f2;stroke:#241c1c;stroke-width:0;stroke-dasharray:none"
       x="142.1922"
       y="52.938297"
       id="text7"
       transform="scale(0.75655103,1.3217879)"><tspan
         sodipodi:role="line"
         id="tspan7"
         style="stroke-width:0"
         x="142.1922"
         y="52.938297">BLOKER</tspan></text>
    <text
       xml:space="preserve"
       style="font-size:9.61961px;fill:#2b0000;stroke:#241c1c;stroke-width:0;stroke-dasharray:none"
       x="142.88194"
       y="52.976952"
       id="text7-6"
       transform="scale(0.75655103,1.3217879)"><tspan
         sodipodi:role="line"
         id="tspan7-1"
         style="stroke-width:0;fill:#2b0000"
         x="142.88194"
         y="52.976952">BLOKER</tspan></text>
  </g>
</svg>
